<!--?xml version="1.0" encoding="utf-8"?-->
<!-- Svg Vector Icons : http://www.onlinewebfonts.com/icon -->

<svg version="1.1" xmlns="http://www.w3.org/2000/svg" xmlns:xlink="http://www.w3.org/1999/xlink" x="0px" y="0px" viewBox="0 0 256 256" enable-background="new 0 0 256 256" xml:space="preserve">
<metadata> Svg Vector Icons : http://www.onlinewebfonts.com/icon </metadata>
<g><g><g><path fill="#3865E6" data-title="Layer 0" xs="0" d="M10,68.3v37.1l37-0.1l37-0.1l0.1-37l0.1-37H47.1H10V68.3z M70.5,68v23.6H47.1H23.8V68V44.4h23.4h23.4L70.5,68L70.5,68z"/><path fill="#3865E6" data-title="Layer 1" xs="1" d="M38.7,58.8c-0.1,0.3-0.1,4.4-0.1,8.9l0.1,8.4h8.8h8.9l0.1-9l0.1-8.9h-8.8C41.1,58.2,38.9,58.3,38.7,58.8z"/><path fill="#3865E6" data-title="Layer 2" xs="2" d="M164.4,68.3v37.1h37.1h37.1V68.3V31.1h-37.1h-37.1V68.3z M224.9,68v23.6h-23.4h-23.4V68V44.4h23.4h23.4V68z"/><path fill="#3865E6" data-title="Layer 3" xs="3" d="M192.4,68v8.9h9.1h9.1V68v-8.8h-9.1h-9.1V68L192.4,68z"/><path fill="#3865E6" data-title="Layer 4" xs="4" d="M131.9,44.4v6.9h-2.7h-2.7v-4.2v-4.2h-6.9h-6.9v4.2v4.2h-6.6h-6.6v6.9v6.9h6.6h6.6v22.1v22.1h6.9h6.9V87.2V65.1h9.3h9.3v4.2v4.1l-4.5,0.1l-4.6,0.1l-0.1,6.7l-0.1,6.8h11.6H159V68.8V50.3h-6.9h-6.9v-6.4v-6.4h-6.6h-6.6L131.9,44.4L131.9,44.4z"/><path fill="#3865E6" data-title="Layer 5" xs="5" d="M92.6,83.5v6.7l6.8-0.1l6.7-0.1l0.1-6.5l0.1-6.5h-6.9h-6.9V83.5z"/><path fill="#3865E6" data-title="Layer 6" xs="6" d="M131.9,110.1v12.5h-6.1h-6.1v6.9v6.9h6.1h6.1v10.3V157h6.6h6.6v-10.3v-10.3h7.9h7.9l-0.1,13.4l-0.1,13.4l-19.5,0.1l-19.6,0.1v-11.8v-11.8h-6.9h-6.9v11.8v11.8h-6.4h-6.4v6.6v6.6h8.9h8.8v18.4v18.4h6.9h6.9v-5.2v-5.2h6.1h6.2l-0.1-6.7l-0.1-6.8l-6-0.1l-6-0.1l0.1-6.2l0.1-6.2l10.7-0.1l10.7-0.1v23.1v23.1h6.9h6.9V217v-5.9h9.1h9.1v-6.9v-6.9H171h-9.1V187v-10.3h17.5h17.5V170v-6.6l-11.2-0.1l-11.2-0.1v-12.5v-12.5l5.6-0.1l5.5-0.1v9.6v9.6h6.9h6.9v-1.7v-1.7h3.7h3.7v-6.9v-6.9H203c-3.3,0-3.7-0.1-3.7-1c0-0.9,0.3-1,8.4-1h8.4v16v16l1.6,0c0.8,0,3.9,0.1,6.8,0.1l5.3,0.1l0.1-12l0.1-12l8-0.1l8-0.1v-6.6v-6.6h-8.1h-8.1v-9.8v-9.9l-6.7,0.1l-6.8,0.1l-0.1,5.5l-0.1,5.6h-6.1h-6.1v-5.7v-5.7l-6.7,0.1l-6.8,0.1l-0.1,5.5l-0.1,5.6h-5.9h-5.9v-4.4v-4.4h-6.9h-6.9v3.7v3.7h-9.6h-9.6v-12.5V97.5h-6.6h-6.6L131.9,110.1L131.9,110.1z"/><path fill="#3865E6" data-title="Layer 7" xs="7" d="M92.6,111.5v2.2H54.7H16.9v6.9v6.9h7.6h7.6v2.7v2.7h6.6h6.6v-2.7v-2.7h5.7h5.7v5.4v5.4h6.9h6.9v-5.4v-5.4h11.1h11.1v2.7v2.8l6.8-0.1l6.7-0.1v-11.6v-11.6l-6.7-0.1l-6.8-0.1V111.5z"/><path fill="#3865E6" data-title="Layer 8" xs="8" d="M10,187.7v37.1l37-0.1l37-0.1l0.1-37l0.1-37H47.1H10V187.7z M70.5,187.5v23.6H47.1H23.8v-23.6v-23.6h23.4h23.4L70.5,187.5L70.5,187.5z"/><path fill="#3865E6" data-title="Layer 9" xs="9" d="M38,187.5v8.8h9h9l-0.1-5.3c0-2.9-0.1-6.9-0.1-8.8l0-3.5h-8.9H38L38,187.5L38,187.5z"/><path fill="#3865E6" data-title="Layer 10" xs="10" d="M216.2,177.3c-0.1,0.3-0.1,3.3-0.1,6.5l0.1,5.9l6.8,0.1l6.7,0.1v-6.7v-6.6h-6.6C218.1,176.7,216.4,176.8,216.2,177.3z"/><path fill="#3865E6" data-title="Layer 11" xs="11" d="M187,187.5v6.4h6.6h6.6v-6.4v-6.4h-6.6H187V187.5z"/><path fill="#3865E6" data-title="Layer 12" xs="12" d="M187,204.2v6.4h6.6h6.6v-6.4v-6.4h-6.6H187V204.2z"/><path fill="#3865E6" data-title="Layer 13" xs="13" d="M92.6,204.9v6.7l6.8-0.1l6.7-0.1V205v-6.4l-6.7-0.1l-6.8-0.1V204.9z"/></g></g></g>
</svg>